<?xml version="1.0" encoding="UTF-8"?>
<!DOCTYPE svg PUBLIC "-//W3C//DTD SVG 1.1//EN" "http://www.w3.org/Graphics/SVG/1.1/DTD/svg11.dtd">
<svg xmlns="http://www.w3.org/2000/svg" version="1.1" width="512px" height="512px" style="shape-rendering:geometricPrecision; text-rendering:geometricPrecision; image-rendering:optimizeQuality; fill-rule:evenodd; clip-rule:evenodd" xmlns:xlink="http://www.w3.org/1999/xlink">
<g><path style="opacity:0.021" fill="#43443f" d="M -0.5,-0.5 C 0.166667,-0.5 0.833333,-0.5 1.5,-0.5C 1.16667,0.5 0.5,1.16667 -0.5,1.5C -0.5,0.833333 -0.5,0.166667 -0.5,-0.5 Z"/></g>
<g><path style="opacity:0.022" fill="#43443f" d="M 16.5,-0.5 C 18.1667,-0.5 19.8333,-0.5 21.5,-0.5C 14.5,7.16667 7.16667,14.5 -0.5,21.5C -0.5,19.8333 -0.5,18.1667 -0.5,16.5C 5.5,11.1667 11.1667,5.5 16.5,-0.5 Z"/></g>
<g><path style="opacity:0.022" fill="#43443f" d="M 36.5,-0.5 C 38.1667,-0.5 39.8333,-0.5 41.5,-0.5C 27.8333,13.8333 13.8333,27.8333 -0.5,41.5C -0.5,39.8333 -0.5,38.1667 -0.5,36.5C 12.1667,24.5 24.5,12.1667 36.5,-0.5 Z"/></g>
<g><path style="opacity:0.022" fill="#43443f" d="M 56.5,-0.5 C 58.1667,-0.5 59.8333,-0.5 61.5,-0.5C 41.1667,20.5 20.5,41.1667 -0.5,61.5C -0.5,59.8333 -0.5,58.1667 -0.5,56.5C 18.8333,37.8333 37.8333,18.8333 56.5,-0.5 Z"/></g>
<g><path style="opacity:0.022" fill="#43443f" d="M 76.5,-0.5 C 78.1667,-0.5 79.8333,-0.5 81.5,-0.5C 54.5,27.1667 27.1667,54.5 -0.5,81.5C -0.5,79.8333 -0.5,78.1667 -0.5,76.5C 25.5,51.1667 51.1667,25.5 76.5,-0.5 Z"/></g>
<g><path style="opacity:0.022" fill="#43443f" d="M 96.5,-0.5 C 98.1667,-0.5 99.8333,-0.5 101.5,-0.5C 67.8333,33.8333 33.8333,67.8333 -0.5,101.5C -0.5,99.8333 -0.5,98.1667 -0.5,96.5C 32.1667,64.5 64.5,32.1667 96.5,-0.5 Z"/></g>
<g><path style="opacity:0.022" fill="#43443f" d="M 116.5,-0.5 C 118.167,-0.5 119.833,-0.5 121.5,-0.5C 81.1667,40.5 40.5,81.1667 -0.5,121.5C -0.5,119.833 -0.5,118.167 -0.5,116.5C 38.8333,77.8333 77.8333,38.8333 116.5,-0.5 Z"/></g>
<g><path style="opacity:0.022" fill="#43443f" d="M 136.5,-0.5 C 138.167,-0.5 139.833,-0.5 141.5,-0.5C 94.5,47.1667 47.1667,94.5 -0.5,141.5C -0.5,139.833 -0.5,138.167 -0.5,136.5C 45.5,91.1667 91.1667,45.5 136.5,-0.5 Z"/></g>
<g><path style="opacity:0.022" fill="#43443f" d="M 156.5,-0.5 C 158.167,-0.5 159.833,-0.5 161.5,-0.5C 107.833,53.8333 53.8333,107.833 -0.5,161.5C -0.5,159.833 -0.5,158.167 -0.5,156.5C 52.1667,104.5 104.5,52.1667 156.5,-0.5 Z"/></g>
<g><path style="opacity:0.022" fill="#43443f" d="M 176.5,-0.5 C 178.167,-0.5 179.833,-0.5 181.5,-0.5C 121.167,60.5 60.5,121.167 -0.5,181.5C -0.5,179.833 -0.5,178.167 -0.5,176.5C 58.8333,117.833 117.833,58.8333 176.5,-0.5 Z"/></g>
<g><path style="opacity:0.022" fill="#43443f" d="M 196.5,-0.5 C 198.167,-0.5 199.833,-0.5 201.5,-0.5C 134.5,67.1667 67.1667,134.5 -0.5,201.5C -0.5,199.833 -0.5,198.167 -0.5,196.5C 65.5,131.167 131.167,65.5 196.5,-0.5 Z"/></g>
<g><path style="opacity:0.022" fill="#43443f" d="M 216.5,-0.5 C 218.167,-0.5 219.833,-0.5 221.5,-0.5C 147.833,73.8333 73.8333,147.833 -0.5,221.5C -0.5,219.833 -0.5,218.167 -0.5,216.5C 72.1667,144.5 144.5,72.1667 216.5,-0.5 Z"/></g>
<g><path style="opacity:0.022" fill="#43443f" d="M 236.5,-0.5 C 238.167,-0.5 239.833,-0.5 241.5,-0.5C 161.167,80.5 80.5,161.167 -0.5,241.5C -0.5,239.833 -0.5,238.167 -0.5,236.5C 78.8333,157.833 157.833,78.8333 236.5,-0.5 Z"/></g>
<g><path style="opacity:0.022" fill="#43443f" d="M 256.5,-0.5 C 258.167,-0.5 259.833,-0.5 261.5,-0.5C 174.5,87.1667 87.1667,174.5 -0.5,261.5C -0.5,259.833 -0.5,258.167 -0.5,256.5C 85.5,171.167 171.167,85.5 256.5,-0.5 Z"/></g>
<g><path style="opacity:0.022" fill="#43443f" d="M 276.5,-0.5 C 278.167,-0.5 279.833,-0.5 281.5,-0.5C 187.833,93.8333 93.8333,187.833 -0.5,281.5C -0.5,279.833 -0.5,278.167 -0.5,276.5C 92.1667,184.5 184.5,92.1667 276.5,-0.5 Z"/></g>
<g><path style="opacity:0.022" fill="#43443f" d="M 296.5,-0.5 C 298.167,-0.5 299.833,-0.5 301.5,-0.5C 201.167,100.5 100.5,201.167 -0.5,301.5C -0.5,299.833 -0.5,298.167 -0.5,296.5C 98.8333,197.833 197.833,98.8333 296.5,-0.5 Z"/></g>
<g><path style="opacity:0.022" fill="#43443f" d="M 316.5,-0.5 C 318.167,-0.5 319.833,-0.5 321.5,-0.5C 277.833,43.5 234.167,87.5 190.5,131.5C 189.833,131.5 189.5,131.833 189.5,132.5C 186.45,134.692 183.117,136.358 179.5,137.5C 225.167,91.5 270.833,45.5 316.5,-0.5 Z"/></g>
<g><path style="opacity:0.022" fill="#43443f" d="M 336.5,-0.5 C 338.167,-0.5 339.833,-0.5 341.5,-0.5C 298.167,43.1667 254.833,86.8333 211.5,130.5C 209.833,130.5 208.167,130.5 206.5,130.5C 249.833,86.8333 293.167,43.1667 336.5,-0.5 Z"/></g>
<g><path style="opacity:0.022" fill="#43443f" d="M 356.5,-0.5 C 358.167,-0.5 359.833,-0.5 361.5,-0.5C 318.167,43.1667 274.833,86.8333 231.5,130.5C 229.833,130.5 228.167,130.5 226.5,130.5C 269.833,86.8333 313.167,43.1667 356.5,-0.5 Z"/></g>
<g><path style="opacity:0.022" fill="#43443f" d="M 376.5,-0.5 C 378.167,-0.5 379.833,-0.5 381.5,-0.5C 338.167,43.1667 294.833,86.8333 251.5,130.5C 249.833,130.5 248.167,130.5 246.5,130.5C 289.833,86.8333 333.167,43.1667 376.5,-0.5 Z"/></g>
<g><path style="opacity:0.022" fill="#43443f" d="M 396.5,-0.5 C 398.167,-0.5 399.833,-0.5 401.5,-0.5C 358.167,43.1667 314.833,86.8333 271.5,130.5C 269.833,130.5 268.167,130.5 266.5,130.5C 309.833,86.8333 353.167,43.1667 396.5,-0.5 Z"/></g>
<g><path style="opacity:0.022" fill="#43443f" d="M 416.5,-0.5 C 418.167,-0.5 419.833,-0.5 421.5,-0.5C 378.167,43.1667 334.833,86.8333 291.5,130.5C 289.833,130.5 288.167,130.5 286.5,130.5C 329.833,86.8333 373.167,43.1667 416.5,-0.5 Z"/></g>
<g><path style="opacity:0.022" fill="#43443f" d="M 436.5,-0.5 C 438.167,-0.5 439.833,-0.5 441.5,-0.5C 398.167,43.1667 354.833,86.8333 311.5,130.5C 309.833,130.5 308.167,130.5 306.5,130.5C 349.833,86.8333 393.167,43.1667 436.5,-0.5 Z"/></g>
<g><path style="opacity:0.022" fill="#43443f" d="M 456.5,-0.5 C 458.167,-0.5 459.833,-0.5 461.5,-0.5C 417.167,44.5 372.5,89.1667 327.5,133.5C 325.973,133.573 324.973,132.906 324.5,131.5C 368.833,87.8333 412.833,43.8333 456.5,-0.5 Z"/></g>
<g><path style="opacity:0.022" fill="#43443f" d="M 476.5,-0.5 C 478.167,-0.5 479.833,-0.5 481.5,-0.5C 434.833,46.8333 387.833,93.8333 340.5,140.5C 339.391,140.443 338.391,140.11 337.5,139.5C 383.833,92.8333 430.167,46.1667 476.5,-0.5 Z"/></g>
<g><path style="opacity:0.022" fill="#43443f" d="M 496.5,-0.5 C 498.167,-0.5 499.833,-0.5 501.5,-0.5C 452.167,49.5 402.5,99.1667 352.5,148.5C 351.5,148.167 350.833,147.5 350.5,146.5C 399.167,97.5 447.833,48.5 496.5,-0.5 Z"/></g>
<g><path style="opacity:0.022" fill="#43443f" d="M 511.5,5.5 C 511.5,7.16667 511.5,8.83333 511.5,10.5C 461.833,59.8333 412.167,109.167 362.5,158.5C 361.5,158.167 360.833,157.5 360.5,156.5C 410.5,105.833 460.833,55.5 511.5,5.5 Z"/></g>
<g><path style="opacity:0.022" fill="#43443f" d="M 511.5,25.5 C 511.5,27.1667 511.5,28.8333 511.5,30.5C 465.167,76.5 418.833,122.5 372.5,168.5C 371.5,168.167 370.833,167.5 370.5,166.5C 417.167,119.167 464.167,72.1667 511.5,25.5 Z"/></g>
<g><path style="opacity:0.022" fill="#43443f" d="M 511.5,45.5 C 511.5,47.1667 511.5,48.8333 511.5,50.5C 468.5,93.1667 425.5,135.833 382.5,178.5C 381.5,178.167 380.833,177.5 380.5,176.5C 423.833,132.5 467.5,88.8333 511.5,45.5 Z"/></g>
<g><path style="opacity:0.022" fill="#43443f" d="M 511.5,65.5 C 511.5,67.1667 511.5,68.8333 511.5,70.5C 471.833,109.833 432.167,149.167 392.5,188.5C 391.5,188.167 390.833,187.5 390.5,186.5C 430.5,145.833 470.833,105.5 511.5,65.5 Z"/></g>
<g><path style="opacity:0.022" fill="#43433f" d="M 511.5,85.5 C 511.5,87.1667 511.5,88.8333 511.5,90.5C 474.833,126.5 438.5,162.833 402.5,199.5C 401.167,198.833 400.167,197.833 399.5,196.5C 436.833,159.5 474.167,122.5 511.5,85.5 Z"/></g>
<g><path style="opacity:0.022" fill="#43443f" d="M 511.5,105.5 C 511.5,107.167 511.5,108.833 511.5,110.5C 478.167,143.5 444.833,176.5 411.5,209.5C 410.833,208.5 410.167,207.5 409.5,206.5C 443.5,172.833 477.5,139.167 511.5,105.5 Z"/></g>
<g><path style="opacity:0.022" fill="#43433f" d="M 511.5,125.5 C 511.5,127.167 511.5,128.833 511.5,130.5C 429.833,211.833 348.167,293.167 266.5,374.5C 278.355,360.156 290.688,346.156 303.5,332.5C 304.167,332.5 304.5,332.167 304.5,331.5C 305.167,331.5 305.5,331.167 305.5,330.5C 306.167,330.5 306.5,330.167 306.5,329.5C 307.167,329.5 307.5,329.167 307.5,328.5C 308.167,328.5 308.5,328.167 308.5,327.5C 309.167,327.5 309.5,327.167 309.5,326.5C 310.167,326.5 310.5,326.167 310.5,325.5C 311.167,325.5 311.5,325.167 311.5,324.5C 378.167,258.167 444.833,191.833 511.5,125.5 Z"/></g>
<g><path style="opacity:0.885" fill="#000000" d="M 206.5,130.5 C 208.167,130.5 209.833,130.5 211.5,130.5C 216.5,130.5 221.5,130.5 226.5,130.5C 228.167,130.5 229.833,130.5 231.5,130.5C 236.5,130.5 241.5,130.5 246.5,130.5C 248.167,130.5 249.833,130.5 251.5,130.5C 256.5,130.5 261.5,130.5 266.5,130.5C 268.167,130.5 269.833,130.5 271.5,130.5C 276.5,130.5 281.5,130.5 286.5,130.5C 288.167,130.5 289.833,130.5 291.5,130.5C 296.5,130.5 301.5,130.5 306.5,130.5C 308.167,130.5 309.833,130.5 311.5,130.5C 315.898,130.294 320.232,130.627 324.5,131.5C 324.973,132.906 325.973,133.573 327.5,133.5C 330.798,135.485 334.131,137.485 337.5,139.5C 338.391,140.11 339.391,140.443 340.5,140.5C 343.466,142.988 346.799,144.988 350.5,146.5C 350.833,147.5 351.5,148.167 352.5,148.5C 354.833,151.5 357.5,154.167 360.5,156.5C 360.833,157.5 361.5,158.167 362.5,158.5C 364.833,161.5 367.5,164.167 370.5,166.5C 370.833,167.5 371.5,168.167 372.5,168.5C 374.833,171.5 377.5,174.167 380.5,176.5C 380.833,177.5 381.5,178.167 382.5,178.5C 384.833,181.5 387.5,184.167 390.5,186.5C 390.833,187.5 391.5,188.167 392.5,188.5C 394.833,191.167 397.167,193.833 399.5,196.5C 400.167,197.833 401.167,198.833 402.5,199.5C 405.194,201.527 407.527,203.861 409.5,206.5C 410.167,207.5 410.833,208.5 411.5,209.5C 411.392,211.783 410.559,213.783 409,215.5C 375.899,251.426 343.399,287.76 311.5,324.5C 310.833,324.5 310.5,324.833 310.5,325.5C 309.833,325.5 309.5,325.833 309.5,326.5C 308.833,326.5 308.5,326.833 308.5,327.5C 307.833,327.5 307.5,327.833 307.5,328.5C 306.833,328.5 306.5,328.833 306.5,329.5C 305.833,329.5 305.5,329.833 305.5,330.5C 304.833,330.5 304.5,330.833 304.5,331.5C 303.833,331.5 303.5,331.833 303.5,332.5C 290.688,346.156 278.355,360.156 266.5,374.5C 264.5,377.167 262.167,379.5 259.5,381.5C 257.833,381.5 256.167,381.5 254.5,381.5C 252.628,378.418 250.295,375.751 247.5,373.5C 247.167,372.5 246.5,371.833 245.5,371.5C 243.628,368.418 241.295,365.751 238.5,363.5C 237.833,362.167 236.833,361.167 235.5,360.5C 233.628,357.418 231.295,354.751 228.5,352.5C 228.167,351.5 227.5,350.833 226.5,350.5C 224.628,347.418 222.295,344.751 219.5,342.5C 218.833,341.167 217.833,340.167 216.5,339.5C 214.883,336.216 212.55,333.549 209.5,331.5C 209.167,330.5 208.5,329.833 207.5,329.5C 205.883,326.216 203.55,323.549 200.5,321.5C 199.833,320.167 198.833,319.167 197.5,318.5C 195.883,315.216 193.55,312.549 190.5,310.5C 190.167,309.5 189.5,308.833 188.5,308.5C 186.883,305.216 184.55,302.549 181.5,300.5C 180.833,299.167 179.833,298.167 178.5,297.5C 176.883,294.216 174.55,291.549 171.5,289.5C 171.167,288.5 170.5,287.833 169.5,287.5C 167.883,284.216 165.55,281.549 162.5,279.5C 161.833,278.167 160.833,277.167 159.5,276.5C 157.883,273.216 155.55,270.549 152.5,268.5C 152.167,267.5 151.5,266.833 150.5,266.5C 148.883,263.216 146.55,260.549 143.5,258.5C 142.833,257.167 141.833,256.167 140.5,255.5C 138.883,252.216 136.55,249.549 133.5,247.5C 133.167,246.5 132.5,245.833 131.5,245.5C 129.883,242.216 127.55,239.549 124.5,237.5C 123.833,236.167 122.833,235.167 121.5,234.5C 119.906,231.236 117.573,228.569 114.5,226.5C 114.068,225.29 113.401,224.29 112.5,223.5C 110.527,220.861 108.194,218.527 105.5,216.5C 104.833,215.5 104.167,214.5 103.5,213.5C 102.489,211.598 102.322,209.598 103,207.5C 123.167,187.333 143.333,167.167 163.5,147C 169.026,144.074 174.359,140.907 179.5,137.5C 183.117,136.358 186.45,134.692 189.5,132.5C 190.167,132.5 190.5,132.167 190.5,131.5C 195.772,130.6 201.105,130.267 206.5,130.5 Z M 197.5,138.5 C 193.5,142.833 189.5,147.167 185.5,151.5C 182.868,150.673 180.202,149.84 177.5,149C 183.826,144.838 190.493,141.338 197.5,138.5 Z M 202.5,138.5 C 207.5,138.5 212.5,138.5 217.5,138.5C 211.833,144.5 206.167,150.5 200.5,156.5C 196.833,155.167 193.167,153.833 189.5,152.5C 193.833,147.833 198.167,143.167 202.5,138.5 Z M 222.5,138.5 C 227.5,138.5 232.5,138.5 237.5,138.5C 230.5,145.833 223.5,153.167 216.5,160.5C 212.397,159.91 208.397,158.91 204.5,157.5C 210.5,151.167 216.5,144.833 222.5,138.5 Z M 242.5,138.5 C 247.5,138.5 252.5,138.5 257.5,138.5C 250.5,145.833 243.5,153.167 236.5,160.5C 231.5,160.5 226.5,160.5 221.5,160.5C 228.5,153.167 235.5,145.833 242.5,138.5 Z M 262.5,138.5 C 267.5,138.5 272.5,138.5 277.5,138.5C 270.5,145.833 263.5,153.167 256.5,160.5C 251.5,160.5 246.5,160.5 241.5,160.5C 248.5,153.167 255.5,145.833 262.5,138.5 Z M 282.5,138.5 C 287.5,138.5 292.5,138.5 297.5,138.5C 290.5,145.833 283.5,153.167 276.5,160.5C 271.5,160.5 266.5,160.5 261.5,160.5C 268.5,153.167 275.5,145.833 282.5,138.5 Z M 302.5,138.5 C 307.5,138.5 312.5,138.5 317.5,138.5C 310.5,145.833 303.5,153.167 296.5,160.5C 291.5,160.5 286.5,160.5 281.5,160.5C 288.5,153.167 295.5,145.833 302.5,138.5 Z M 321.5,140.5 C 324.76,141.774 327.76,143.44 330.5,145.5C 328.5,147.833 326.5,150.167 324.5,152.5C 317.316,155.228 309.982,157.561 302.5,159.5C 308.5,152.833 314.833,146.5 321.5,140.5 Z M 334.5,147.5 C 335.289,147.783 335.956,148.283 336.5,149C 334.846,149.608 333.179,150.108 331.5,150.5C 332.167,149.167 333.167,148.167 334.5,147.5 Z M 178.5,157.5 C 177.5,158.833 176.5,160.167 175.5,161.5C 172.236,157.094 173.236,155.76 178.5,157.5 Z M 338.5,157.5 C 331.167,165.5 323.5,173.167 315.5,180.5C 313.265,177.709 311.265,174.709 309.5,171.5C 312.167,169.5 314.5,167.167 316.5,164.5C 323.695,161.768 331.029,159.435 338.5,157.5 Z M 182.5,159.5 C 186.223,160.297 189.89,161.297 193.5,162.5C 189.167,167.5 184.5,172.167 179.5,176.5C 178.5,172.5 177.5,168.5 176.5,164.5C 178.5,162.833 180.5,161.167 182.5,159.5 Z M 168.5,168.5 C 166.5,170.167 164.5,171.833 162.5,173.5C 163.272,169.954 164.605,166.621 166.5,163.5C 167.562,165.022 168.229,166.688 168.5,168.5 Z M 338.5,163.5 C 336.565,170.971 334.232,178.305 331.5,185.5C 328.5,188.167 325.5,190.833 322.5,193.5C 320.58,190.661 318.913,187.661 317.5,184.5C 324.167,177.167 331.167,170.167 338.5,163.5 Z M 349.5,167.5 C 348.167,168.5 346.833,169.5 345.5,170.5C 346.03,168.076 346.864,165.743 348,163.5C 348.41,164.901 348.91,166.234 349.5,167.5 Z M 197.5,164.5 C 200.945,165.093 204.279,166.093 207.5,167.5C 206.533,169.79 205.2,171.79 203.5,173.5C 197.167,179.5 190.833,185.5 184.5,191.5C 183.297,187.89 182.297,184.223 181.5,180.5C 186.5,174.833 191.833,169.5 197.5,164.5 Z M 309.5,166.5 C 309.167,167.5 308.5,168.167 307.5,168.5C 307.5,167.167 308.167,166.5 309.5,166.5 Z M 146.5,190.5 C 140.833,195.5 135.5,200.833 130.5,206.5C 125.821,206.666 121.155,206.499 116.5,206C 129.333,193.167 142.167,180.333 155,167.5C 152.777,175.3 149.944,182.967 146.5,190.5 Z M 363.5,172.5 C 363.167,173.5 362.5,174.167 361.5,174.5C 357.096,166.613 357.762,165.946 363.5,172.5 Z M 227.5,168.5 C 219.5,177.167 211.167,185.5 202.5,193.5C 206.723,185.393 211.223,177.393 216,169.5C 219.73,168.54 223.563,168.207 227.5,168.5 Z M 232.5,168.5 C 235.85,168.335 239.183,168.502 242.5,169C 234.199,175.145 225.533,180.645 216.5,185.5C 221.833,179.833 227.167,174.167 232.5,168.5 Z M 287.5,168.5 C 285.5,170.833 283.5,173.167 281.5,175.5C 278.357,173.758 275.357,171.758 272.5,169.5C 277.456,168.506 282.456,168.173 287.5,168.5 Z M 292.5,168.5 C 297.522,168.185 300.522,170.519 301.5,175.5C 298.5,177.833 295.833,180.5 293.5,183.5C 290.5,181.5 287.5,179.5 284.5,177.5C 287.167,174.5 289.833,171.5 292.5,168.5 Z M 350.5,171.5 C 352.346,174.54 353.679,177.873 354.5,181.5C 348.833,187.833 342.833,193.833 336.5,199.5C 338.219,191.951 340.553,184.618 343.5,177.5C 345.833,175.5 348.167,173.5 350.5,171.5 Z M 169.5,172.5 C 170.975,176.031 172.308,179.698 173.5,183.5C 165.833,190.833 158.167,198.167 150.5,205.5C 153.108,197.34 156.108,189.34 159.5,181.5C 162.833,178.5 166.167,175.5 169.5,172.5 Z M 262.5,173.5 C 262.5,174.167 262.167,174.5 261.5,174.5C 260.258,172.654 260.591,172.321 262.5,173.5 Z M 253.5,183.5 C 245.5,190.833 237.833,198.5 230.5,206.5C 225.5,206.5 220.5,206.5 215.5,206.5C 223.167,198.5 230.833,190.5 238.5,182.5C 242.54,179.135 246.873,176.135 251.5,173.5C 252.24,176.866 252.907,180.2 253.5,183.5 Z M 265.5,175.5 C 268.709,177.265 271.709,179.265 274.5,181.5C 270.5,186.167 266.167,190.5 261.5,194.5C 261.5,189.5 261.5,184.5 261.5,179.5C 263.167,178.5 264.5,177.167 265.5,175.5 Z M 366.5,175.5 C 369.167,177.5 371.5,179.833 373.5,182.5C 371.5,185.167 369.167,187.5 366.5,189.5C 365.442,185.721 364.109,182.054 362.5,178.5C 363.833,177.5 365.167,176.5 366.5,175.5 Z M 303.5,178.5 C 305.56,181.24 307.226,184.24 308.5,187.5C 307.833,188.833 306.833,189.833 305.5,190.5C 302.366,189.099 299.366,187.432 296.5,185.5C 298.5,182.833 300.833,180.5 303.5,178.5 Z M 277.5,183.5 C 281.054,184.769 284.054,186.769 286.5,189.5C 281.167,195.167 275.833,200.833 270.5,206.5C 267.5,206.5 264.5,206.5 261.5,206.5C 261.5,204.167 261.5,201.833 261.5,199.5C 267.167,194.5 272.5,189.167 277.5,183.5 Z M 356.5,185.5 C 357.833,189.167 359.167,192.833 360.5,196.5C 356.833,199.5 353.5,202.833 350.5,206.5C 345.5,206.5 340.5,206.5 335.5,206.5C 342.167,199.167 349.167,192.167 356.5,185.5 Z M 376.5,185.5 C 379.167,187.5 381.5,189.833 383.5,192.5C 380.167,196.5 376.5,200.167 372.5,203.5C 370.771,199.979 369.438,196.313 368.5,192.5C 371.167,190.167 373.833,187.833 376.5,185.5 Z M 195.5,186.5 C 193.28,191.272 190.78,195.938 188,200.5C 186.991,198.975 186.491,197.308 186.5,195.5C 189.167,192.167 192.167,189.167 195.5,186.5 Z M 174.5,187.5 C 175.833,191.167 177.167,194.833 178.5,198.5C 175.5,200.833 172.833,203.5 170.5,206.5C 165.5,206.5 160.5,206.5 155.5,206.5C 161.5,199.833 167.833,193.5 174.5,187.5 Z M 253.5,188.5 C 253.5,193.5 253.5,198.5 253.5,203.5C 252.167,204.167 251.167,205.167 250.5,206.5C 245.5,206.5 240.5,206.5 235.5,206.5C 241.167,200.167 247.167,194.167 253.5,188.5 Z M 310.5,190.5 C 311.89,191.899 312.89,193.566 313.5,195.5C 311.566,194.89 309.899,193.89 308.5,192.5C 309.5,192.167 310.167,191.5 310.5,190.5 Z M 224.5,191.5 C 219.833,196.5 215.167,201.5 210.5,206.5C 207.482,206.665 204.482,206.498 201.5,206C 208.886,200.645 216.552,195.812 224.5,191.5 Z M 290.5,191.5 C 293.709,193.265 296.709,195.265 299.5,197.5C 296.167,200.167 293.167,203.167 290.5,206.5C 285.5,206.5 280.5,206.5 275.5,206.5C 280.167,201.167 285.167,196.167 290.5,191.5 Z M 329.5,192.5 C 328.774,195.179 327.941,197.846 327,200.5C 325.905,199.307 325.072,197.973 324.5,196.5C 326.167,195.167 327.833,193.833 329.5,192.5 Z M 386.5,195.5 C 389.167,197.5 391.5,199.833 393.5,202.5C 392.5,203.833 391.5,205.167 390.5,206.5C 385.5,206.5 380.5,206.5 375.5,206.5C 378.833,202.5 382.5,198.833 386.5,195.5 Z M 143.5,198.5 C 142.629,201.112 141.963,203.779 141.5,206.5C 139.5,206.5 137.5,206.5 135.5,206.5C 137.833,203.5 140.5,200.833 143.5,198.5 Z M 302.5,199.5 C 305.806,200.82 308.806,202.653 311.5,205C 306.355,206.446 301.021,206.946 295.5,206.5C 297.5,203.833 299.833,201.5 302.5,199.5 Z M 361.5,200.5 C 362.771,202.109 363.771,203.942 364.5,206C 361.518,206.498 358.518,206.665 355.5,206.5C 357.167,204.167 359.167,202.167 361.5,200.5 Z M 179.5,202.5 C 180.234,203.708 180.567,205.041 180.5,206.5C 178.833,206.5 177.167,206.5 175.5,206.5C 176.5,204.833 177.833,203.5 179.5,202.5 Z M 121.5,214.5 C 120.833,215.833 119.833,216.833 118.5,217.5C 117.522,217.189 116.855,216.522 116.5,215.5C 118.045,214.548 119.712,214.215 121.5,214.5 Z M 126.5,214.5 C 131.695,214.179 136.695,214.513 141.5,215.5C 136.833,219.5 132.5,223.833 128.5,228.5C 126.196,225.859 123.862,223.192 121.5,220.5C 123.167,218.5 124.833,216.5 126.5,214.5 Z M 161.5,214.5 C 159.833,216.833 157.833,218.833 155.5,220.5C 154.298,218.608 152.965,216.774 151.5,215C 154.817,214.502 158.15,214.335 161.5,214.5 Z M 166.5,214.5 C 171.5,214.5 176.5,214.5 181.5,214.5C 175.833,220.5 170.167,226.5 164.5,232.5C 161.759,230.025 159.759,227.025 158.5,223.5C 161.167,220.5 163.833,217.5 166.5,214.5 Z M 201.5,214.5 C 199.833,216.833 197.833,218.833 195.5,220.5C 194.27,218.703 193.604,216.703 193.5,214.5C 196.167,214.5 198.833,214.5 201.5,214.5 Z M 206.5,214.5 C 211.5,214.5 216.5,214.5 221.5,214.5C 215.167,221.5 208.5,228.167 201.5,234.5C 199.616,231.397 198.282,228.063 197.5,224.5C 200.5,221.167 203.5,217.833 206.5,214.5 Z M 226.5,214.5 C 231.5,214.5 236.5,214.5 241.5,214.5C 230.5,226.167 219.167,237.5 207.5,248.5C 205.654,245.46 204.321,242.127 203.5,238.5C 211.167,230.5 218.833,222.5 226.5,214.5 Z M 246.5,214.5 C 248.833,214.5 251.167,214.5 253.5,214.5C 253.5,217.5 253.5,220.5 253.5,223.5C 240.167,236.5 226.833,249.5 213.5,262.5C 211.648,259.449 210.314,256.116 209.5,252.5C 221.833,239.833 234.167,227.167 246.5,214.5 Z M 266.5,214.5 C 271.5,214.5 276.5,214.5 281.5,214.5C 275.167,221.5 268.5,228.167 261.5,234.5C 261.5,229.5 261.5,224.5 261.5,219.5C 263.5,218.167 265.167,216.5 266.5,214.5 Z M 286.5,214.5 C 291.5,214.5 296.5,214.5 301.5,214.5C 288.5,228.167 275.167,241.5 261.5,254.5C 261.5,249.5 261.5,244.5 261.5,239.5C 270.167,231.5 278.5,223.167 286.5,214.5 Z M 306.5,214.5 C 311.511,214.334 316.511,214.501 321.5,215C 320.944,215.383 320.611,215.883 320.5,216.5C 300.833,235.833 281.167,255.167 261.5,274.5C 261.5,269.5 261.5,264.5 261.5,259.5C 276.833,244.833 291.833,229.833 306.5,214.5 Z M 341.5,214.5 C 335.833,220.833 329.833,226.833 323.5,232.5C 325.544,226.741 327.878,221.074 330.5,215.5C 334.107,214.511 337.774,214.177 341.5,214.5 Z M 346.5,214.5 C 351.5,214.5 356.5,214.5 361.5,214.5C 344.5,232.167 327.167,249.5 309.5,266.5C 312.44,258.014 315.773,249.681 319.5,241.5C 328.833,232.833 337.833,223.833 346.5,214.5 Z M 366.5,214.5 C 371.5,214.5 376.5,214.5 381.5,214.5C 373.5,223.167 365.167,231.5 356.5,239.5C 359.024,234.957 361.691,230.457 364.5,226C 364.178,223.479 362.844,221.979 360.5,221.5C 362.5,219.167 364.5,216.833 366.5,214.5 Z M 386.5,214.5 C 390.182,214.335 393.848,214.501 397.5,215C 383.365,231.635 368.699,247.802 353.5,263.5C 340.5,276.167 327.5,288.833 314.5,301.5C 323.807,287.184 333.141,272.851 342.5,258.5C 357.5,244.167 372.167,229.5 386.5,214.5 Z M 184.5,217.5 C 186.153,220.759 187.819,224.093 189.5,227.5C 183.5,232.833 177.833,238.5 172.5,244.5C 169.759,242.025 167.759,239.025 166.5,235.5C 172.167,229.167 178.167,223.167 184.5,217.5 Z M 143.5,218.5 C 145.853,220.86 147.853,223.527 149.5,226.5C 145.833,230.833 141.833,234.833 137.5,238.5C 135.196,235.859 132.862,233.192 130.5,230.5C 134.833,226.5 139.167,222.5 143.5,218.5 Z M 316.5,225.5 C 313.447,233.94 310.114,242.273 306.5,250.5C 291.5,265.167 276.5,279.833 261.5,294.5C 261.5,289.5 261.5,284.5 261.5,279.5C 279.833,261.5 298.167,243.5 316.5,225.5 Z M 253.5,228.5 C 253.5,233.5 253.5,238.5 253.5,243.5C 242.167,254.5 230.833,265.5 219.5,276.5C 217.597,273.47 216.263,270.137 215.5,266.5C 227.833,253.5 240.5,240.833 253.5,228.5 Z M 151.5,230.5 C 153.975,232.77 155.975,235.437 157.5,238.5C 154.167,242.167 150.833,245.833 147.5,249.5C 145.177,246.874 142.843,244.207 140.5,241.5C 143.833,237.5 147.5,233.833 151.5,230.5 Z M 190.5,231.5 C 192.153,234.759 193.819,238.093 195.5,241.5C 190.167,246.167 185.167,251.167 180.5,256.5C 178.255,253.68 176.255,250.68 174.5,247.5C 179.5,241.833 184.833,236.5 190.5,231.5 Z M 350.5,231.5 C 349.928,233.255 349.094,234.922 348,236.5C 347.167,240.836 349,242.836 353.5,242.5C 349.833,246.833 345.833,250.833 341.5,254.5C 338.453,252.887 335.953,253.554 334,256.5C 329.65,263.877 324.817,270.877 319.5,277.5C 311.167,285.5 302.833,293.5 294.5,301.5C 297.635,292.568 301.302,283.901 305.5,275.5C 320.5,260.833 335.5,246.167 350.5,231.5 Z M 159.5,241.5 C 161.735,244.291 163.735,247.291 165.5,250.5C 162.833,253.833 159.833,256.833 156.5,259.5C 154.196,256.859 151.862,254.192 149.5,251.5C 153.167,248.5 156.5,245.167 159.5,241.5 Z M 196.5,245.5 C 198.352,248.551 199.686,251.884 200.5,255.5C 196.5,259.833 192.5,264.167 188.5,268.5C 186.265,265.709 184.265,262.709 182.5,259.5C 186.833,254.5 191.5,249.833 196.5,245.5 Z M 253.5,248.5 C 253.5,253.5 253.5,258.5 253.5,263.5C 244.167,272.5 234.833,281.5 225.5,290.5C 223.847,287.241 222.181,283.907 220.5,280.5C 231.5,269.833 242.5,259.167 253.5,248.5 Z M 167.5,253.5 C 169.745,256.32 171.745,259.32 173.5,262.5C 171.167,265.167 168.833,267.833 166.5,270.5C 164.177,267.874 161.843,265.207 159.5,262.5C 162.167,259.5 164.833,256.5 167.5,253.5 Z M 202.5,259.5 C 204.346,262.54 205.679,265.873 206.5,269.5C 203.5,273.167 200.167,276.5 196.5,279.5C 194.147,277.14 192.147,274.473 190.5,271.5C 194.167,267.167 198.167,263.167 202.5,259.5 Z M 302.5,259.5 C 299.222,268.335 295.555,277.002 291.5,285.5C 281.5,295.167 271.5,304.833 261.5,314.5C 261.5,309.5 261.5,304.5 261.5,299.5C 275.167,286.167 288.833,272.833 302.5,259.5 Z M 175.5,265.5 C 178.241,267.975 180.241,270.975 181.5,274.5C 179.833,276.833 177.833,278.833 175.5,280.5C 173.177,277.874 170.843,275.207 168.5,272.5C 171.167,270.5 173.5,268.167 175.5,265.5 Z M 253.5,268.5 C 253.5,273.5 253.5,278.5 253.5,283.5C 246.167,290.5 238.833,297.5 231.5,304.5C 229.463,301.416 227.797,298.083 226.5,294.5C 235.5,285.833 244.5,277.167 253.5,268.5 Z M 208.5,273.5 C 210.384,276.603 211.718,279.937 212.5,283.5C 210.167,286.5 207.5,289.167 204.5,291.5C 202.147,289.14 200.147,286.473 198.5,283.5C 201.5,279.833 204.833,276.5 208.5,273.5 Z M 184.5,277.5 C 186.252,280.672 188.252,283.672 190.5,286.5C 188.5,287.833 186.833,289.5 185.5,291.5C 182.705,289.249 180.372,286.582 178.5,283.5C 180.167,281.167 182.167,279.167 184.5,277.5 Z M 214.5,287.5 C 216.028,290.749 217.361,294.082 218.5,297.5C 216.833,299.833 214.833,301.833 212.5,303.5C 209.759,301.025 207.759,298.025 206.5,294.5C 209.167,292.167 211.833,289.833 214.5,287.5 Z M 253.5,288.5 C 253.5,293.5 253.5,298.5 253.5,303.5C 248.167,308.5 242.833,313.5 237.5,318.5C 235.463,315.416 233.797,312.083 232.5,308.5C 239.5,301.833 246.5,295.167 253.5,288.5 Z M 192.5,289.5 C 194.5,292.5 196.5,295.5 198.5,298.5C 197.167,299.5 195.833,300.5 194.5,301.5C 192.177,298.874 189.843,296.207 187.5,293.5C 189.167,292.167 190.833,290.833 192.5,289.5 Z M 308.5,293.5 C 299.218,308.112 289.551,322.445 279.5,336.5C 282.778,327.665 286.445,318.998 290.5,310.5C 296.5,304.833 302.5,299.167 308.5,293.5 Z M 287.5,294.5 C 284.365,303.432 280.698,312.099 276.5,320.5C 271.5,325.167 266.5,329.833 261.5,334.5C 261.5,329.5 261.5,324.5 261.5,319.5C 270.167,311.167 278.833,302.833 287.5,294.5 Z M 200.5,301.5 C 202.5,304.5 204.5,307.5 206.5,310.5C 205.5,310.833 204.833,311.5 204.5,312.5C 201.705,310.249 199.372,307.582 197.5,304.5C 198.167,303.167 199.167,302.167 200.5,301.5 Z M 220.5,301.5 C 222.028,304.749 223.361,308.082 224.5,311.5C 223.5,313.167 222.167,314.5 220.5,315.5C 218.265,312.709 216.265,309.709 214.5,306.5C 216.5,304.833 218.5,303.167 220.5,301.5 Z M 253.5,308.5 C 253.5,313.5 253.5,318.5 253.5,323.5C 249.833,326.5 246.5,329.833 243.5,333.5C 241.594,330.017 239.928,326.35 238.5,322.5C 243.5,317.833 248.5,313.167 253.5,308.5 Z M 208.5,313.5 C 210.735,316.291 212.735,319.291 214.5,322.5C 214.167,322.5 213.833,322.5 213.5,322.5C 210.705,320.249 208.372,317.582 206.5,314.5C 207.167,314.167 207.833,313.833 208.5,313.5 Z M 226.5,315.5 C 227.831,318.829 229.164,322.162 230.5,325.5C 230.167,326.5 229.5,327.167 228.5,327.5C 226.265,324.709 224.265,321.709 222.5,318.5C 223.833,317.5 225.167,316.5 226.5,315.5 Z M 306.5,315.5 C 304.906,318.764 302.573,321.431 299.5,323.5C 300.415,321.246 301.748,319.246 303.5,317.5C 304.5,316.833 305.5,316.167 306.5,315.5 Z M 253.5,328.5 C 253.5,333.5 253.5,338.5 253.5,343.5C 251.833,344.5 250.5,345.833 249.5,347.5C 247.594,344.017 245.928,340.35 244.5,336.5C 247.5,333.833 250.5,331.167 253.5,328.5 Z M 232.5,329.5 C 233.363,331.421 234.029,333.421 234.5,335.5C 232.937,334.055 231.604,332.389 230.5,330.5C 231.167,330.167 231.833,329.833 232.5,329.5 Z M 272.5,329.5 C 269.683,338.116 266.183,346.449 262,354.5C 261.501,349.511 261.334,344.511 261.5,339.5C 265.167,336.167 268.833,332.833 272.5,329.5 Z M 253.5,348.5 C 254.064,357.499 253.064,358.166 250.5,350.5C 251.5,349.833 252.5,349.167 253.5,348.5 Z"/></g>
<g><path style="opacity:0.022" fill="#43433f" d="M 197.5,138.5 C 199.167,138.5 200.833,138.5 202.5,138.5C 198.167,143.167 193.833,147.833 189.5,152.5C 188.041,152.567 186.708,152.234 185.5,151.5C 189.5,147.167 193.5,142.833 197.5,138.5 Z"/></g>
<g><path style="opacity:0.022" fill="#43443f" d="M 217.5,138.5 C 219.167,138.5 220.833,138.5 222.5,138.5C 216.5,144.833 210.5,151.167 204.5,157.5C 203.167,157.167 201.833,156.833 200.5,156.5C 206.167,150.5 211.833,144.5 217.5,138.5 Z"/></g>
<g><path style="opacity:0.022" fill="#43443f" d="M 237.5,138.5 C 239.167,138.5 240.833,138.5 242.5,138.5C 235.5,145.833 228.5,153.167 221.5,160.5C 219.833,160.5 218.167,160.5 216.5,160.5C 223.5,153.167 230.5,145.833 237.5,138.5 Z"/></g>
<g><path style="opacity:0.022" fill="#43443f" d="M 257.5,138.5 C 259.167,138.5 260.833,138.5 262.5,138.5C 255.5,145.833 248.5,153.167 241.5,160.5C 239.833,160.5 238.167,160.5 236.5,160.5C 243.5,153.167 250.5,145.833 257.5,138.5 Z"/></g>
<g><path style="opacity:0.022" fill="#43443f" d="M 277.5,138.5 C 279.167,138.5 280.833,138.5 282.5,138.5C 275.5,145.833 268.5,153.167 261.5,160.5C 259.833,160.5 258.167,160.5 256.5,160.5C 263.5,153.167 270.5,145.833 277.5,138.5 Z"/></g>
<g><path style="opacity:0.022" fill="#43443f" d="M 297.5,138.5 C 299.167,138.5 300.833,138.5 302.5,138.5C 295.5,145.833 288.5,153.167 281.5,160.5C 279.833,160.5 278.167,160.5 276.5,160.5C 283.5,153.167 290.5,145.833 297.5,138.5 Z"/></g>
<g><path style="opacity:0.022" fill="#43443f" d="M 317.5,138.5 C 319.153,138.66 320.486,139.326 321.5,140.5C 314.833,146.5 308.5,152.833 302.5,159.5C 301.833,159.5 301.5,159.833 301.5,160.5C 299.833,160.5 298.167,160.5 296.5,160.5C 303.5,153.167 310.5,145.833 317.5,138.5 Z"/></g>
<g><path style="opacity:0.022" fill="#43433f" d="M 330.5,145.5 C 332.153,145.66 333.486,146.326 334.5,147.5C 333.167,148.167 332.167,149.167 331.5,150.5C 329.299,151.566 326.965,152.233 324.5,152.5C 326.5,150.167 328.5,147.833 330.5,145.5 Z"/></g>
<g><path style="opacity:0.022" fill="#43443f" d="M 511.5,145.5 C 511.5,147.167 511.5,148.833 511.5,150.5C 390.833,270.5 270.5,390.833 150.5,511.5C 148.833,511.5 147.167,511.5 145.5,511.5C 267.167,389.167 389.167,267.167 511.5,145.5 Z"/></g>
<g><path style="opacity:0.022" fill="#43443f" d="M 339.5,162.5 C 338.833,162.5 338.5,162.833 338.5,163.5C 331.167,170.167 324.167,177.167 317.5,184.5C 316.326,183.486 315.66,182.153 315.5,180.5C 323.5,173.167 331.167,165.5 338.5,157.5C 339.423,156.697 340.423,156.53 341.5,157C 340.536,158.725 339.869,160.559 339.5,162.5 Z"/></g>
<g><path style="opacity:0.022" fill="#42423e" d="M 178.5,157.5 C 179.995,157.989 181.329,158.655 182.5,159.5C 180.5,161.167 178.5,162.833 176.5,164.5C 175.596,163.791 175.263,162.791 175.5,161.5C 176.5,160.167 177.5,158.833 178.5,157.5 Z"/></g>
<g><path style="opacity:0.022" fill="#43433f" d="M 193.5,162.5 C 194.995,162.989 196.329,163.655 197.5,164.5C 191.833,169.5 186.5,174.833 181.5,180.5C 180.655,179.329 179.989,177.995 179.5,176.5C 184.5,172.167 189.167,167.5 193.5,162.5 Z"/></g>
<g><path style="opacity:0.022" fill="#43443f" d="M 316.5,164.5 C 314.5,167.167 312.167,169.5 309.5,171.5C 308.599,170.71 307.932,169.71 307.5,168.5C 308.5,168.167 309.167,167.5 309.5,166.5C 311.701,165.434 314.035,164.767 316.5,164.5 Z"/></g>
<g><path style="opacity:0.022" fill="#43443f" d="M 511.5,165.5 C 511.5,167.167 511.5,168.833 511.5,170.5C 397.5,283.833 283.833,397.5 170.5,511.5C 168.833,511.5 167.167,511.5 165.5,511.5C 280.5,395.833 395.833,280.5 511.5,165.5 Z"/></g>
<g><path style="opacity:0.022" fill="#43433f" d="M 349.5,167.5 C 350.234,168.708 350.567,170.041 350.5,171.5C 348.167,173.5 345.833,175.5 343.5,177.5C 343.767,175.035 344.434,172.701 345.5,170.5C 346.833,169.5 348.167,168.5 349.5,167.5 Z"/></g>
<g><path style="opacity:0.022" fill="#43443f" d="M 168.5,168.5 C 169.234,169.708 169.567,171.041 169.5,172.5C 166.167,175.5 162.833,178.5 159.5,181.5C 160.108,178.673 161.108,176.007 162.5,173.5C 164.5,171.833 166.5,170.167 168.5,168.5 Z"/></g>
<g><path style="opacity:0.022" fill="#43433f" d="M 227.5,168.5 C 229.167,168.5 230.833,168.5 232.5,168.5C 227.167,174.167 221.833,179.833 216.5,185.5C 215.833,185.5 215.5,185.833 215.5,186.5C 214.833,186.5 214.5,186.833 214.5,187.5C 210.306,190.429 205.973,193.095 201.5,195.5C 201.5,195.167 201.5,194.833 201.5,194.5C 202.167,194.5 202.5,194.167 202.5,193.5C 211.167,185.5 219.5,177.167 227.5,168.5 Z"/></g>
<g><path style="opacity:0.022" fill="#43443f" d="M 287.5,168.5 C 289.167,168.5 290.833,168.5 292.5,168.5C 289.833,171.5 287.167,174.5 284.5,177.5C 283.29,177.068 282.29,176.401 281.5,175.5C 283.5,173.167 285.5,170.833 287.5,168.5 Z"/></g>
<g><path style="opacity:0.022" fill="#43443f" d="M 363.5,172.5 C 364.833,173.167 365.833,174.167 366.5,175.5C 365.167,176.5 363.833,177.5 362.5,178.5C 361.766,177.292 361.433,175.959 361.5,174.5C 362.5,174.167 363.167,173.5 363.5,172.5 Z"/></g>
<g><path style="opacity:0.022" fill="#43433f" d="M 203.5,173.5 C 201.766,177.3 199.766,180.966 197.5,184.5C 196.833,184.5 196.5,184.833 196.5,185.5C 195.833,185.5 195.5,185.833 195.5,186.5C 192.167,189.167 189.167,192.167 186.5,195.5C 185.655,194.329 184.989,192.995 184.5,191.5C 190.833,185.5 197.167,179.5 203.5,173.5 Z"/></g>
<g><path style="opacity:0.022" fill="#42423e" d="M 262.5,173.5 C 263.71,173.932 264.71,174.599 265.5,175.5C 264.5,177.167 263.167,178.5 261.5,179.5C 261.5,177.833 261.5,176.167 261.5,174.5C 262.167,174.5 262.5,174.167 262.5,173.5 Z"/></g>
<g><path style="opacity:0.022" fill="#43433f" d="M 301.5,175.5 C 302.401,176.29 303.068,177.29 303.5,178.5C 300.833,180.5 298.5,182.833 296.5,185.5C 295.5,184.833 294.5,184.167 293.5,183.5C 295.833,180.5 298.5,177.833 301.5,175.5 Z"/></g>
<g><path style="opacity:0.022" fill="#43433f" d="M 274.5,181.5 C 276.027,181.427 277.027,182.094 277.5,183.5C 272.5,189.167 267.167,194.5 261.5,199.5C 261.5,197.833 261.5,196.167 261.5,194.5C 266.167,190.5 270.5,186.167 274.5,181.5 Z"/></g>
<g><path style="opacity:0.022" fill="#43433f" d="M 238.5,182.5 C 230.833,190.5 223.167,198.5 215.5,206.5C 213.833,206.5 212.167,206.5 210.5,206.5C 215.167,201.5 219.833,196.5 224.5,191.5C 225.167,191.5 225.5,191.167 225.5,190.5C 226.167,190.5 226.5,190.167 226.5,189.5C 230.199,186.65 234.199,184.317 238.5,182.5 Z"/></g>
<g><path style="opacity:0.022" fill="#43433f" d="M 354.5,181.5 C 355.345,182.671 356.011,184.005 356.5,185.5C 349.167,192.167 342.167,199.167 335.5,206.5C 334.761,206.631 334.094,206.464 333.5,206C 334.464,204.275 335.131,202.441 335.5,200.5C 336.167,200.5 336.5,200.167 336.5,199.5C 342.833,193.833 348.833,187.833 354.5,181.5 Z"/></g>
<g><path style="opacity:0.022" fill="#43443f" d="M 373.5,182.5 C 374.833,183.167 375.833,184.167 376.5,185.5C 373.833,187.833 371.167,190.167 368.5,192.5C 367.599,191.71 366.932,190.71 366.5,189.5C 369.167,187.5 371.5,185.167 373.5,182.5 Z"/></g>
<g><path style="opacity:0.022" fill="#43433f" d="M 173.5,183.5 C 174.234,184.708 174.567,186.041 174.5,187.5C 167.833,193.5 161.5,199.833 155.5,206.5C 153.833,206.5 152.167,206.5 150.5,206.5C 150.5,206.167 150.5,205.833 150.5,205.5C 158.167,198.167 165.833,190.833 173.5,183.5 Z"/></g>
<g><path style="opacity:0.022" fill="#43443f" d="M 253.5,183.5 C 253.5,185.167 253.5,186.833 253.5,188.5C 247.167,194.167 241.167,200.167 235.5,206.5C 233.833,206.5 232.167,206.5 230.5,206.5C 237.833,198.5 245.5,190.833 253.5,183.5 Z"/></g>
<g><path style="opacity:0.022" fill="#43433f" d="M 331.5,185.5 C 331.233,187.965 330.566,190.299 329.5,192.5C 327.833,193.833 326.167,195.167 324.5,196.5C 323.833,195.5 323.167,194.5 322.5,193.5C 325.5,190.833 328.5,188.167 331.5,185.5 Z"/></g>
<g><path style="opacity:0.022" fill="#43443f" d="M 511.5,185.5 C 511.5,187.167 511.5,188.833 511.5,190.5C 404.167,297.167 297.167,404.167 190.5,511.5C 188.833,511.5 187.167,511.5 185.5,511.5C 293.833,402.5 402.5,293.833 511.5,185.5 Z"/></g>
<g><path style="opacity:0.022" fill="#43443f" d="M 308.5,187.5 C 309.906,187.973 310.573,188.973 310.5,190.5C 310.167,191.5 309.5,192.167 308.5,192.5C 306.973,192.573 305.973,191.906 305.5,190.5C 306.833,189.833 307.833,188.833 308.5,187.5 Z"/></g>
<g><path style="opacity:0.022" fill="#43433f" d="M 286.5,189.5 C 288.153,189.66 289.486,190.326 290.5,191.5C 285.167,196.167 280.167,201.167 275.5,206.5C 273.833,206.5 272.167,206.5 270.5,206.5C 275.833,200.833 281.167,195.167 286.5,189.5 Z"/></g>
<g><path style="opacity:0.022" fill="#43433f" d="M 146.5,190.5 C 146.122,192.921 145.455,195.254 144.5,197.5C 143.833,197.5 143.5,197.833 143.5,198.5C 140.5,200.833 137.833,203.5 135.5,206.5C 133.833,206.5 132.167,206.5 130.5,206.5C 135.5,200.833 140.833,195.5 146.5,190.5 Z"/></g>
<g><path style="opacity:0.022" fill="#43443f" d="M 383.5,192.5 C 384.833,193.167 385.833,194.167 386.5,195.5C 382.5,198.833 378.833,202.5 375.5,206.5C 373.5,206.5 372.5,205.5 372.5,203.5C 376.5,200.167 380.167,196.5 383.5,192.5 Z"/></g>
<g><path style="opacity:0.022" fill="#43443f" d="M 360.5,196.5 C 361.234,197.708 361.567,199.041 361.5,200.5C 359.167,202.167 357.167,204.167 355.5,206.5C 353.833,206.5 352.167,206.5 350.5,206.5C 353.5,202.833 356.833,199.5 360.5,196.5 Z"/></g>
<g><path style="opacity:0.022" fill="#43433f" d="M 299.5,197.5 C 301.027,197.427 302.027,198.094 302.5,199.5C 299.833,201.5 297.5,203.833 295.5,206.5C 293.833,206.5 292.167,206.5 290.5,206.5C 293.167,203.167 296.167,200.167 299.5,197.5 Z"/></g>
<g><path style="opacity:0.022" fill="#43443f" d="M 178.5,198.5 C 178.833,199.833 179.167,201.167 179.5,202.5C 177.833,203.5 176.5,204.833 175.5,206.5C 173.833,206.5 172.167,206.5 170.5,206.5C 172.833,203.5 175.5,200.833 178.5,198.5 Z"/></g>
<g><path style="opacity:0.022" fill="#43443f" d="M 393.5,202.5 C 394.833,203.167 395.833,204.167 396.5,205.5C 395.833,205.5 395.5,205.833 395.5,206.5C 393.833,206.5 392.167,206.5 390.5,206.5C 391.5,205.167 392.5,203.833 393.5,202.5 Z"/></g>
<g><path style="opacity:0.022" fill="#43443f" d="M 253.5,203.5 C 253.5,204.5 253.5,205.5 253.5,206.5C 252.5,206.5 251.5,206.5 250.5,206.5C 251.167,205.167 252.167,204.167 253.5,203.5 Z"/></g>
<g><path style="opacity:0.022" fill="#43443f" d="M 511.5,205.5 C 511.5,207.167 511.5,208.833 511.5,210.5C 410.833,310.5 310.5,410.833 210.5,511.5C 208.833,511.5 207.167,511.5 205.5,511.5C 307.167,409.167 409.167,307.167 511.5,205.5 Z"/></g>
<g><path style="opacity:0.022" fill="#43443f" d="M 103.5,213.5 C 104.167,214.5 104.833,215.5 105.5,216.5C 70.1667,251.5 34.8333,286.5 -0.5,321.5C -0.5,319.833 -0.5,318.167 -0.5,316.5C 34.1667,282.167 68.8333,247.833 103.5,213.5 Z"/></g>
<g><path style="opacity:0.022" fill="#43443f" d="M 121.5,214.5 C 123.167,214.5 124.833,214.5 126.5,214.5C 124.833,216.5 123.167,218.5 121.5,220.5C 120.167,219.833 119.167,218.833 118.5,217.5C 119.833,216.833 120.833,215.833 121.5,214.5 Z"/></g>
<g><path style="opacity:0.022" fill="#43443f" d="M 161.5,214.5 C 163.167,214.5 164.833,214.5 166.5,214.5C 163.833,217.5 161.167,220.5 158.5,223.5C 157.167,222.833 156.167,221.833 155.5,220.5C 157.833,218.833 159.833,216.833 161.5,214.5 Z"/></g>
<g><path style="opacity:0.022" fill="#43443f" d="M 181.5,214.5 C 182.5,214.5 183.5,214.5 184.5,214.5C 184.5,215.5 184.5,216.5 184.5,217.5C 178.167,223.167 172.167,229.167 166.5,235.5C 165.094,235.027 164.427,234.027 164.5,232.5C 170.167,226.5 175.833,220.5 181.5,214.5 Z"/></g>
<g><path style="opacity:0.022" fill="#43443f" d="M 201.5,214.5 C 203.167,214.5 204.833,214.5 206.5,214.5C 203.5,217.833 200.5,221.167 197.5,224.5C 196.326,223.486 195.66,222.153 195.5,220.5C 197.833,218.833 199.833,216.833 201.5,214.5 Z"/></g>
<g><path style="opacity:0.022" fill="#43443f" d="M 221.5,214.5 C 223.167,214.5 224.833,214.5 226.5,214.5C 218.833,222.5 211.167,230.5 203.5,238.5C 202.326,237.486 201.66,236.153 201.5,234.5C 208.5,228.167 215.167,221.5 221.5,214.5 Z"/></g>
<g><path style="opacity:0.022" fill="#43443f" d="M 241.5,214.5 C 243.167,214.5 244.833,214.5 246.5,214.5C 234.167,227.167 221.833,239.833 209.5,252.5C 208.326,251.486 207.66,250.153 207.5,248.5C 219.167,237.5 230.5,226.167 241.5,214.5 Z"/></g>
<g><path style="opacity:0.022" fill="#43443f" d="M 266.5,214.5 C 265.167,216.5 263.5,218.167 261.5,219.5C 261.5,217.833 261.5,216.167 261.5,214.5C 263.167,214.5 264.833,214.5 266.5,214.5 Z"/></g>
<g><path style="opacity:0.022" fill="#43443f" d="M 281.5,214.5 C 283.167,214.5 284.833,214.5 286.5,214.5C 278.5,223.167 270.167,231.5 261.5,239.5C 261.5,237.833 261.5,236.167 261.5,234.5C 268.5,228.167 275.167,221.5 281.5,214.5 Z"/></g>
<g><path style="opacity:0.022" fill="#43443f" d="M 301.5,214.5 C 303.167,214.5 304.833,214.5 306.5,214.5C 291.833,229.833 276.833,244.833 261.5,259.5C 261.5,257.833 261.5,256.167 261.5,254.5C 275.167,241.5 288.5,228.167 301.5,214.5 Z"/></g>
<g><path style="opacity:0.022" fill="#43433f" d="M 341.5,214.5 C 343.167,214.5 344.833,214.5 346.5,214.5C 337.833,223.833 328.833,232.833 319.5,241.5C 320.5,238.833 321.5,236.167 322.5,233.5C 323.167,233.5 323.5,233.167 323.5,232.5C 329.833,226.833 335.833,220.833 341.5,214.5 Z"/></g>
<g><path style="opacity:0.022" fill="#43433f" d="M 361.5,214.5 C 363.167,214.5 364.833,214.5 366.5,214.5C 364.5,216.833 362.5,219.167 360.5,221.5C 356.855,223.145 354.188,225.812 352.5,229.5C 351.833,229.5 351.5,229.833 351.5,230.5C 350.833,230.5 350.5,230.833 350.5,231.5C 335.5,246.167 320.5,260.833 305.5,275.5C 305.94,272.62 306.94,269.954 308.5,267.5C 309.167,267.5 309.5,267.167 309.5,266.5C 327.167,249.5 344.5,232.167 361.5,214.5 Z"/></g>
<g><path style="opacity:0.022" fill="#43443f" d="M 381.5,214.5 C 383.167,214.5 384.833,214.5 386.5,214.5C 372.167,229.5 357.5,244.167 342.5,258.5C 342.567,257.041 342.234,255.708 341.5,254.5C 345.833,250.833 349.833,246.833 353.5,242.5C 354.167,242.5 354.5,242.167 354.5,241.5C 355.167,241.5 355.5,241.167 355.5,240.5C 356.167,240.5 356.5,240.167 356.5,239.5C 365.167,231.5 373.5,223.167 381.5,214.5 Z"/></g>
<g><path style="opacity:0.022" fill="#43443f" d="M 141.5,215.5 C 142.906,215.973 143.573,216.973 143.5,218.5C 139.167,222.5 134.833,226.5 130.5,230.5C 129.5,230.167 128.833,229.5 128.5,228.5C 132.5,223.833 136.833,219.5 141.5,215.5 Z"/></g>
<g><path style="opacity:0.022" fill="#43443f" d="M 320.5,216.5 C 319.892,219.327 318.892,221.993 317.5,224.5C 316.833,224.5 316.5,224.833 316.5,225.5C 298.167,243.5 279.833,261.5 261.5,279.5C 261.5,277.833 261.5,276.167 261.5,274.5C 281.167,255.167 300.833,235.833 320.5,216.5 Z"/></g>
<g><path style="opacity:0.824" fill="#000000" d="M 360.5,221.5 C 362.844,221.979 364.178,223.479 364.5,226C 361.691,230.457 359.024,234.957 356.5,239.5C 355.833,239.5 355.5,239.833 355.5,240.5C 354.833,240.5 354.5,240.833 354.5,241.5C 353.833,241.5 353.5,241.833 353.5,242.5C 349,242.836 347.167,240.836 348,236.5C 349.094,234.922 349.928,233.255 350.5,231.5C 351.167,231.5 351.5,231.167 351.5,230.5C 352.167,230.5 352.5,230.167 352.5,229.5C 354.188,225.812 356.855,223.145 360.5,221.5 Z"/></g>
<g><path style="opacity:0.022" fill="#43443f" d="M 253.5,223.5 C 253.5,225.167 253.5,226.833 253.5,228.5C 240.5,240.833 227.833,253.5 215.5,266.5C 214.326,265.486 213.66,264.153 213.5,262.5C 226.833,249.5 240.167,236.5 253.5,223.5 Z"/></g>
<g><path style="opacity:0.022" fill="#43433f" d="M 112.5,223.5 C 113.401,224.29 114.068,225.29 114.5,226.5C 76.5,265.167 38.1667,303.5 -0.5,341.5C -0.5,339.833 -0.5,338.167 -0.5,336.5C 37.5,299.167 75.1667,261.5 112.5,223.5 Z"/></g>
<g><path style="opacity:0.022" fill="#43443f" d="M 511.5,225.5 C 511.5,227.167 511.5,228.833 511.5,230.5C 417.5,323.833 323.833,417.5 230.5,511.5C 228.833,511.5 227.167,511.5 225.5,511.5C 320.5,415.833 415.833,320.5 511.5,225.5 Z"/></g>
<g><path style="opacity:0.022" fill="#43433f" d="M 149.5,226.5 C 150.674,227.514 151.34,228.847 151.5,230.5C 147.5,233.833 143.833,237.5 140.5,241.5C 139.167,240.833 138.167,239.833 137.5,238.5C 141.833,234.833 145.833,230.833 149.5,226.5 Z"/></g>
<g><path style="opacity:0.022" fill="#43433f" d="M 189.5,227.5 C 190.234,228.708 190.567,230.041 190.5,231.5C 184.833,236.5 179.5,241.833 174.5,247.5C 173.094,247.027 172.427,246.027 172.5,244.5C 177.833,238.5 183.5,232.833 189.5,227.5 Z"/></g>
<g><path style="opacity:0.022" fill="#43443f" d="M 121.5,234.5 C 122.833,235.167 123.833,236.167 124.5,237.5C 82.8333,278.833 41.1667,320.167 -0.5,361.5C -0.5,359.833 -0.5,358.167 -0.5,356.5C 40.5,316.167 81.1667,275.5 121.5,234.5 Z"/></g>
<g><path style="opacity:0.022" fill="#43443f" d="M 157.5,238.5 C 158.401,239.29 159.068,240.29 159.5,241.5C 156.5,245.167 153.167,248.5 149.5,251.5C 148.5,251.167 147.833,250.5 147.5,249.5C 150.833,245.833 154.167,242.167 157.5,238.5 Z"/></g>
<g><path style="opacity:0.022" fill="#43433f" d="M 195.5,241.5 C 195.833,242.833 196.167,244.167 196.5,245.5C 191.5,249.833 186.833,254.5 182.5,259.5C 181.094,259.027 180.427,258.027 180.5,256.5C 185.167,251.167 190.167,246.167 195.5,241.5 Z"/></g>
<g><path style="opacity:0.022" fill="#43433f" d="M 253.5,243.5 C 253.5,245.167 253.5,246.833 253.5,248.5C 242.5,259.167 231.5,269.833 220.5,280.5C 219.766,279.292 219.433,277.959 219.5,276.5C 230.833,265.5 242.167,254.5 253.5,243.5 Z"/></g>
<g><path style="opacity:0.022" fill="#43443f" d="M 131.5,245.5 C 132.5,245.833 133.167,246.5 133.5,247.5C 89.1667,292.5 44.5,337.167 -0.5,381.5C -0.5,379.833 -0.5,378.167 -0.5,376.5C 43.5,332.833 87.5,289.167 131.5,245.5 Z"/></g>
<g><path style="opacity:0.022" fill="#43443f" d="M 511.5,245.5 C 511.5,247.167 511.5,248.833 511.5,250.5C 424.167,337.167 337.167,424.167 250.5,511.5C 248.833,511.5 247.167,511.5 245.5,511.5C 333.833,422.5 422.5,333.833 511.5,245.5 Z"/></g>
<g><path style="opacity:0.022" fill="#43433f" d="M 165.5,250.5 C 166.906,250.973 167.573,251.973 167.5,253.5C 164.833,256.5 162.167,259.5 159.5,262.5C 158.167,261.833 157.167,260.833 156.5,259.5C 159.833,256.833 162.833,253.833 165.5,250.5 Z"/></g>
<g><path style="opacity:0.022" fill="#43433f" d="M 306.5,250.5 C 305.439,253.622 304.105,256.622 302.5,259.5C 288.833,272.833 275.167,286.167 261.5,299.5C 261.5,297.833 261.5,296.167 261.5,294.5C 276.5,279.833 291.5,265.167 306.5,250.5 Z"/></g>
<g><path style="opacity:0.022" fill="#43443f" d="M 140.5,255.5 C 141.833,256.167 142.833,257.167 143.5,258.5C 95.5,306.167 47.5,353.833 -0.5,401.5C -0.5,399.833 -0.5,398.167 -0.5,396.5C 46.8333,349.833 93.8333,302.833 140.5,255.5 Z"/></g>
<g><path style="opacity:0.022" fill="#43443f" d="M 200.5,255.5 C 201.674,256.514 202.34,257.847 202.5,259.5C 198.167,263.167 194.167,267.167 190.5,271.5C 189.599,270.71 188.932,269.71 188.5,268.5C 192.5,264.167 196.5,259.833 200.5,255.5 Z"/></g>
<g><path style="opacity:0.022" fill="#43443f" d="M 173.5,262.5 C 174.906,262.973 175.573,263.973 175.5,265.5C 173.5,268.167 171.167,270.5 168.5,272.5C 167.5,272.167 166.833,271.5 166.5,270.5C 168.833,267.833 171.167,265.167 173.5,262.5 Z"/></g>
<g><path style="opacity:0.022" fill="#43433f" d="M 253.5,263.5 C 253.5,265.167 253.5,266.833 253.5,268.5C 244.5,277.167 235.5,285.833 226.5,294.5C 225.766,293.292 225.433,291.959 225.5,290.5C 234.833,281.5 244.167,272.5 253.5,263.5 Z"/></g>
<g><path style="opacity:0.022" fill="#42423e" d="M 353.5,263.5 C 341.546,278.365 328.88,292.698 315.5,306.5C 314.833,306.5 314.5,306.833 314.5,307.5C 313.833,307.5 313.5,307.833 313.5,308.5C 312.833,308.5 312.5,308.833 312.5,309.5C 311.833,309.5 311.5,309.833 311.5,310.5C 310.833,310.5 310.5,310.833 310.5,311.5C 309.833,311.5 309.5,311.833 309.5,312.5C 308.833,312.5 308.5,312.833 308.5,313.5C 307.833,313.5 307.5,313.833 307.5,314.5C 306.833,314.5 306.5,314.833 306.5,315.5C 305.5,316.167 304.5,316.833 303.5,317.5C 305.991,312.522 308.991,307.855 312.5,303.5C 313.167,303.5 313.5,303.167 313.5,302.5C 314.167,302.5 314.5,302.167 314.5,301.5C 327.5,288.833 340.5,276.167 353.5,263.5 Z"/></g>
<g><path style="opacity:0.022" fill="#43443f" d="M 511.5,265.5 C 511.5,267.167 511.5,268.833 511.5,270.5C 430.833,350.5 350.5,430.833 270.5,511.5C 268.833,511.5 267.167,511.5 265.5,511.5C 347.167,429.167 429.167,347.167 511.5,265.5 Z"/></g>
<g><path style="opacity:0.022" fill="#43443f" d="M 150.5,266.5 C 151.5,266.833 152.167,267.5 152.5,268.5C 101.833,319.833 50.8333,370.833 -0.5,421.5C -0.5,419.833 -0.5,418.167 -0.5,416.5C 49.8333,366.5 100.167,316.5 150.5,266.5 Z"/></g>
<g><path style="opacity:0.022" fill="#43433f" d="M 206.5,269.5 C 207.674,270.514 208.34,271.847 208.5,273.5C 204.833,276.5 201.5,279.833 198.5,283.5C 197.326,282.486 196.66,281.153 196.5,279.5C 200.167,276.5 203.5,273.167 206.5,269.5 Z"/></g>
<g><path style="opacity:0.022" fill="#43433f" d="M 181.5,274.5 C 182.833,275.167 183.833,276.167 184.5,277.5C 182.167,279.167 180.167,281.167 178.5,283.5C 177.167,282.833 176.167,281.833 175.5,280.5C 177.833,278.833 179.833,276.833 181.5,274.5 Z"/></g>
<g><path style="opacity:0.022" fill="#43443f" d="M 159.5,276.5 C 160.833,277.167 161.833,278.167 162.5,279.5C 108.167,333.5 53.8333,387.5 -0.5,441.5C -0.5,439.833 -0.5,438.167 -0.5,436.5C 53.1667,383.5 106.5,330.167 159.5,276.5 Z"/></g>
<g><path style="opacity:0.022" fill="#43433f" d="M 319.5,277.5 C 317.009,282.478 314.009,287.145 310.5,291.5C 309.833,291.5 309.5,291.833 309.5,292.5C 308.833,292.5 308.5,292.833 308.5,293.5C 302.5,299.167 296.5,304.833 290.5,310.5C 291.108,307.673 292.108,305.007 293.5,302.5C 294.167,302.5 294.5,302.167 294.5,301.5C 302.833,293.5 311.167,285.5 319.5,277.5 Z"/></g>
<g><path style="opacity:0.022" fill="#43443f" d="M 212.5,283.5 C 213.674,284.514 214.34,285.847 214.5,287.5C 211.833,289.833 209.167,292.167 206.5,294.5C 205.094,294.027 204.427,293.027 204.5,291.5C 207.5,289.167 210.167,286.5 212.5,283.5 Z"/></g>
<g><path style="opacity:0.022" fill="#43443f" d="M 253.5,283.5 C 253.5,285.167 253.5,286.833 253.5,288.5C 246.5,295.167 239.5,301.833 232.5,308.5C 231.766,307.292 231.433,305.959 231.5,304.5C 238.833,297.5 246.167,290.5 253.5,283.5 Z"/></g>
<g><path style="opacity:0.022" fill="#43443f" d="M 291.5,285.5 C 290.499,288.172 289.499,290.838 288.5,293.5C 287.833,293.5 287.5,293.833 287.5,294.5C 278.833,302.833 270.167,311.167 261.5,319.5C 261.5,317.833 261.5,316.167 261.5,314.5C 271.5,304.833 281.5,295.167 291.5,285.5 Z"/></g>
<g><path style="opacity:0.022" fill="#43443f" d="M 511.5,285.5 C 511.5,287.167 511.5,288.833 511.5,290.5C 437.5,363.833 363.833,437.5 290.5,511.5C 288.833,511.5 287.167,511.5 285.5,511.5C 360.5,435.833 435.833,360.5 511.5,285.5 Z"/></g>
<g><path style="opacity:0.022" fill="#43443f" d="M 190.5,286.5 C 191.167,287.5 191.833,288.5 192.5,289.5C 190.833,290.833 189.167,292.167 187.5,293.5C 186.5,293.167 185.833,292.5 185.5,291.5C 186.833,289.5 188.5,287.833 190.5,286.5 Z"/></g>
<g><path style="opacity:0.022" fill="#43443f" d="M 169.5,287.5 C 170.5,287.833 171.167,288.5 171.5,289.5C 114.5,347.167 57.1667,404.5 -0.5,461.5C -0.5,459.833 -0.5,458.167 -0.5,456.5C 56.1667,400.167 112.833,343.833 169.5,287.5 Z"/></g>
<g><path style="opacity:0.022" fill="#43443f" d="M 178.5,297.5 C 179.833,298.167 180.833,299.167 181.5,300.5C 120.833,360.833 60.1667,421.167 -0.5,481.5C -0.5,479.833 -0.5,478.167 -0.5,476.5C 59.5,417.167 119.167,357.5 178.5,297.5 Z"/></g>
<g><path style="opacity:0.022" fill="#43433f" d="M 218.5,297.5 C 219.674,298.514 220.34,299.847 220.5,301.5C 218.5,303.167 216.5,304.833 214.5,306.5C 213.094,306.027 212.427,305.027 212.5,303.5C 214.833,301.833 216.833,299.833 218.5,297.5 Z"/></g>
<g><path style="opacity:0.022" fill="#43443f" d="M 198.5,298.5 C 199.167,299.5 199.833,300.5 200.5,301.5C 199.167,302.167 198.167,303.167 197.5,304.5C 196.167,303.833 195.167,302.833 194.5,301.5C 195.833,300.5 197.167,299.5 198.5,298.5 Z"/></g>
<g><path style="opacity:0.022" fill="#43443f" d="M 253.5,303.5 C 253.5,305.167 253.5,306.833 253.5,308.5C 248.5,313.167 243.5,317.833 238.5,322.5C 237.766,321.292 237.433,319.959 237.5,318.5C 242.833,313.5 248.167,308.5 253.5,303.5 Z"/></g>
<g><path style="opacity:0.022" fill="#43443f" d="M 511.5,305.5 C 511.5,307.167 511.5,308.833 511.5,310.5C 444.167,377.167 377.167,444.167 310.5,511.5C 308.833,511.5 307.167,511.5 305.5,511.5C 373.833,442.5 442.5,373.833 511.5,305.5 Z"/></g>
<g><path style="opacity:0.022" fill="#43443f" d="M 188.5,308.5 C 189.5,308.833 190.167,309.5 190.5,310.5C 127.167,374.5 63.5,438.167 -0.5,501.5C -0.5,499.833 -0.5,498.167 -0.5,496.5C 62.5,433.833 125.5,371.167 188.5,308.5 Z"/></g>
<g><path style="opacity:0.022" fill="#43433f" d="M 206.5,310.5 C 207.401,311.29 208.068,312.29 208.5,313.5C 207.833,313.833 207.167,314.167 206.5,314.5C 205.5,314.167 204.833,313.5 204.5,312.5C 204.833,311.5 205.5,310.833 206.5,310.5 Z"/></g>
<g><path style="opacity:0.022" fill="#43443f" d="M 224.5,311.5 C 225.345,312.671 226.011,314.005 226.5,315.5C 225.167,316.5 223.833,317.5 222.5,318.5C 221.599,317.71 220.932,316.71 220.5,315.5C 222.167,314.5 223.5,313.167 224.5,311.5 Z"/></g>
<g><path style="opacity:0.022" fill="#43443f" d="M 197.5,318.5 C 198.833,319.167 199.833,320.167 200.5,321.5C 136.833,384.5 73.5,447.833 10.5,511.5C 8.83333,511.5 7.16667,511.5 5.5,511.5C 69.5,447.167 133.5,382.833 197.5,318.5 Z"/></g>
<g><path style="opacity:0.022" fill="#43443f" d="M 276.5,320.5 C 275.892,323.327 274.892,325.993 273.5,328.5C 272.833,328.5 272.5,328.833 272.5,329.5C 268.833,332.833 265.167,336.167 261.5,339.5C 261.5,337.833 261.5,336.167 261.5,334.5C 266.5,329.833 271.5,325.167 276.5,320.5 Z"/></g>
<g><path style="opacity:0.022" fill="#43443f" d="M 213.5,322.5 C 213.833,322.5 214.167,322.5 214.5,322.5C 215.504,325.105 215.17,325.105 213.5,322.5 Z"/></g>
<g><path style="opacity:0.022" fill="#43443f" d="M 253.5,323.5 C 253.5,325.167 253.5,326.833 253.5,328.5C 250.5,331.167 247.5,333.833 244.5,336.5C 243.89,335.609 243.557,334.609 243.5,333.5C 246.5,329.833 249.833,326.5 253.5,323.5 Z"/></g>
<g><path style="opacity:0.022" fill="#43443f" d="M 511.5,325.5 C 511.5,327.167 511.5,328.833 511.5,330.5C 450.833,390.5 390.5,450.833 330.5,511.5C 328.833,511.5 327.167,511.5 325.5,511.5C 387.167,449.167 449.167,387.167 511.5,325.5 Z"/></g>
<g><path style="opacity:0.022" fill="#41413d" d="M 230.5,325.5 C 231.345,326.671 232.011,328.005 232.5,329.5C 231.833,329.833 231.167,330.167 230.5,330.5C 229.599,329.71 228.932,328.71 228.5,327.5C 229.5,327.167 230.167,326.5 230.5,325.5 Z"/></g>
<g><path style="opacity:0.022" fill="#43443f" d="M 207.5,329.5 C 208.5,329.833 209.167,330.5 209.5,331.5C 149.833,391.5 90.1667,451.5 30.5,511.5C 28.8333,511.5 27.1667,511.5 25.5,511.5C 85.8333,450.5 146.5,389.833 207.5,329.5 Z"/></g>
<g><path style="opacity:0.022" fill="#43443f" d="M 216.5,339.5 C 217.833,340.167 218.833,341.167 219.5,342.5C 162.833,398.5 106.5,454.833 50.5,511.5C 48.8333,511.5 47.1667,511.5 45.5,511.5C 102.5,454.167 159.5,396.833 216.5,339.5 Z"/></g>
<g><path style="opacity:0.022" fill="#43443f" d="M 253.5,343.5 C 253.5,345.167 253.5,346.833 253.5,348.5C 252.5,349.167 251.5,349.833 250.5,350.5C 249.89,349.609 249.557,348.609 249.5,347.5C 250.5,345.833 251.833,344.5 253.5,343.5 Z"/></g>
<g><path style="opacity:0.022" fill="#43443f" d="M 511.5,345.5 C 511.5,347.167 511.5,348.833 511.5,350.5C 457.5,403.833 403.833,457.5 350.5,511.5C 348.833,511.5 347.167,511.5 345.5,511.5C 400.5,455.833 455.833,400.5 511.5,345.5 Z"/></g>
<g><path style="opacity:0.022" fill="#43443f" d="M 226.5,350.5 C 227.5,350.833 228.167,351.5 228.5,352.5C 175.833,405.5 123.167,458.5 70.5,511.5C 68.8333,511.5 67.1667,511.5 65.5,511.5C 118.833,457.5 172.5,403.833 226.5,350.5 Z"/></g>
<g><path style="opacity:0.022" fill="#43443f" d="M 235.5,360.5 C 236.833,361.167 237.833,362.167 238.5,363.5C 188.833,412.5 139.5,461.833 90.5,511.5C 88.8333,511.5 87.1667,511.5 85.5,511.5C 135.5,461.167 185.5,410.833 235.5,360.5 Z"/></g>
<g><path style="opacity:0.022" fill="#43443f" d="M 511.5,365.5 C 511.5,367.167 511.5,368.833 511.5,370.5C 464.167,417.167 417.167,464.167 370.5,511.5C 368.833,511.5 367.167,511.5 365.5,511.5C 413.833,462.5 462.5,413.833 511.5,365.5 Z"/></g>
<g><path style="opacity:0.022" fill="#43443f" d="M 245.5,371.5 C 246.5,371.833 247.167,372.5 247.5,373.5C 201.833,419.5 156.167,465.5 110.5,511.5C 108.833,511.5 107.167,511.5 105.5,511.5C 151.833,464.5 198.5,417.833 245.5,371.5 Z"/></g>
<g><path style="opacity:0.022" fill="#43443f" d="M 254.5,381.5 C 256.167,381.5 257.833,381.5 259.5,381.5C 216.5,424.833 173.5,468.167 130.5,511.5C 128.833,511.5 127.167,511.5 125.5,511.5C 168.5,468.167 211.5,424.833 254.5,381.5 Z"/></g>
<g><path style="opacity:0.022" fill="#43443f" d="M 511.5,385.5 C 511.5,387.167 511.5,388.833 511.5,390.5C 470.833,430.5 430.5,470.833 390.5,511.5C 388.833,511.5 387.167,511.5 385.5,511.5C 427.167,469.167 469.167,427.167 511.5,385.5 Z"/></g>
<g><path style="opacity:0.022" fill="#43443f" d="M 511.5,405.5 C 511.5,407.167 511.5,408.833 511.5,410.5C 477.5,443.833 443.833,477.5 410.5,511.5C 408.833,511.5 407.167,511.5 405.5,511.5C 440.5,475.833 475.833,440.5 511.5,405.5 Z"/></g>
<g><path style="opacity:0.022" fill="#43443f" d="M 511.5,425.5 C 511.5,427.167 511.5,428.833 511.5,430.5C 484.167,457.167 457.167,484.167 430.5,511.5C 428.833,511.5 427.167,511.5 425.5,511.5C 453.833,482.5 482.5,453.833 511.5,425.5 Z"/></g>
<g><path style="opacity:0.022" fill="#43443f" d="M 511.5,445.5 C 511.5,447.167 511.5,448.833 511.5,450.5C 490.833,470.5 470.5,490.833 450.5,511.5C 448.833,511.5 447.167,511.5 445.5,511.5C 467.167,489.167 489.167,467.167 511.5,445.5 Z"/></g>
<g><path style="opacity:0.022" fill="#43443f" d="M 511.5,465.5 C 511.5,467.167 511.5,468.833 511.5,470.5C 497.5,483.833 483.833,497.5 470.5,511.5C 468.833,511.5 467.167,511.5 465.5,511.5C 480.5,495.833 495.833,480.5 511.5,465.5 Z"/></g>
<g><path style="opacity:0.022" fill="#43443f" d="M 511.5,485.5 C 511.5,487.167 511.5,488.833 511.5,490.5C 504.167,497.167 497.167,504.167 490.5,511.5C 488.833,511.5 487.167,511.5 485.5,511.5C 493.833,502.5 502.5,493.833 511.5,485.5 Z"/></g>
<g><path style="opacity:0.022" fill="#43443f" d="M 511.5,505.5 C 511.5,507.167 511.5,508.833 511.5,510.5C 510.833,510.5 510.5,510.833 510.5,511.5C 508.833,511.5 507.167,511.5 505.5,511.5C 507.167,509.167 509.167,507.167 511.5,505.5 Z"/></g>
</svg>
